# xmcd
#
# Track frame offsets:
#      150
#      13397
#      29092
#      43050
#      57724
#      70273
#      83023
#      96788
#      111432
#      125502
#      137436
#      149506
#      161653
#      175211
#      187382
#      200484
#      212484
#      225352
#      240673
#      253273
# 
# Disc length: 3564 seconds
#
# Revision: 2
# Processed by: cddbd v1.4PL0 Copyright (c) Steve Scherf et al.
#
# Submitted via: FreeRIP 1.21
#
DISCID=330dea14
DTITLE=Washboard Sam - Washboard Blues 1935 - 1941
DYEAR=1996
DGENRE=Blues
TTITLE0=Mama don't allow No. 1
TTITLE1=I'm a prowlin' growndhog
TTITLE2=Give me lovin'
TTITLE3=Oh, Red!
TTITLE4=Swing cats swing
TTITLE5=Low down woman
TTITLE6=The big boat
TTITLE7=Second story man
TTITLE8=Down at the old village store
TTITLE9=It's too late now
TTITLE10=Bucket's got a hole in it
TTITLE11=Policy writer's blues
TTITLE12=Diggin' my potatoes
TTITLE13=Jersey cow blues
TTITLE14=She fooled me
TTITLE15=I'm going to St. Louis
TTITLE16=Little leg woman
TTITLE17=I'm not the lad
TTITLE18=Flying crow blues
TTITLE19=Gonna hit the highway
EXTD=ID3G:   0
EXTT0=
EXTT1=
EXTT2=
EXTT3=
EXTT4=
EXTT5=
EXTT6=
EXTT7=
EXTT8=
EXTT9=
EXTT10=
EXTT11=
EXTT12=
EXTT13=
EXTT14=
EXTT15=
EXTT16=
EXTT17=
EXTT18=
EXTT19=
PLAYORDER=
